<?xml version="1.0" encoding="UTF-8"?>
<svg version="1.1" xmlns="http://www.w3.org/2000/svg" width="2000" height="1500">
<path d="M0 0 C660 0 1320 0 2000 0 C2000 495 2000 990 2000 1500 C1340 1500 680 1500 0 1500 C0 1005 0 510 0 0 Z " fill="#091F5B" transform="translate(0,0)"/>
<path d="M0 0 C1.43519485 -0.00285507 1.43519485 -0.00285507 2.89938354 -0.00576782 C21.00915164 -0.00168769 39.28856446 0.69692774 57 4.75 C58.00675781 4.97131592 59.01351563 5.19263184 60.05078125 5.4206543 C62.892659 6.05373005 65.72829253 6.70853375 68.5625 7.375 C69.6146167 7.61839111 69.6146167 7.61839111 70.68798828 7.86669922 C90.3513683 12.49247487 109.4421315 19.500446 127.5625 28.375 C128.40876953 28.78588867 129.25503906 29.19677734 130.12695312 29.62011719 C148.91277375 38.83009442 166.31334777 50.20646141 182.5625 63.375 C183.96435547 64.47134766 183.96435547 64.47134766 185.39453125 65.58984375 C202.03927852 79.04961972 218.0815009 94.97401662 230.5625 112.375 C231.44702092 113.53522867 232.33517901 114.69269162 233.2265625 115.84765625 C264.07933309 156.19778086 284.94921185 207.55865713 288.5625 258.375 C288.6464502 259.44886963 288.73040039 260.52273926 288.81689453 261.62915039 C289.52221123 271.19761053 289.80472359 280.72049251 289.8125 290.3125 C289.81351212 291.454272 289.81351212 291.454272 289.81454468 292.61911011 C289.79577987 306.06400468 288.85068216 319.1088087 286.5625 332.375 C286.38025879 333.4563623 286.19801758 334.53772461 286.01025391 335.65185547 C283.86881779 348.13372665 281.47873582 360.40268526 277.26464844 372.36425781 C276.48521178 374.59633025 275.74622448 376.83997206 275.0078125 379.0859375 C262.94567001 415.26882354 243.97346334 450.07247888 217.78515625 478.00390625 C215.85538276 480.06255741 214.01271416 482.16182597 212.1875 484.3125 C204.0859972 493.59309476 195.223359 501.75068572 185.5625 509.375 C184.39548275 510.33001527 183.23020997 511.28716501 182.06640625 512.24609375 C124.96936696 559.0733401 48.50083405 581.7719669 -24.94140625 574.6484375 C-40.67028422 573.0250572 -56.15920728 570.49376042 -71.4375 566.375 C-72.23768555 566.16681641 -73.03787109 565.95863281 -73.86230469 565.74414062 C-122.99069159 552.81038142 -166.12858186 525.31463147 -202.4375 490.375 C-203.62472656 489.24964844 -203.62472656 489.24964844 -204.8359375 488.1015625 C-209.29792027 483.7806701 -213.21831589 479.11704886 -217.09765625 474.26953125 C-218.63641977 472.36598572 -220.20631857 470.48712222 -221.80859375 468.63671875 C-229.19981596 460.0865529 -235.39494722 450.91090361 -241.4375 441.375 C-241.870625 440.6934082 -242.30375 440.01181641 -242.75 439.30957031 C-254.96043052 419.87781487 -264.25756279 398.96477251 -271.48974609 377.21923828 C-272.34023014 374.6669098 -273.22373513 372.12872311 -274.11328125 369.58984375 C-277.77713351 358.71050473 -279.81994518 347.60204082 -281.75 336.3125 C-281.87941986 335.55551819 -282.00883972 334.79853638 -282.1421814 334.01861572 C-284.76376914 318.5071865 -285.67603662 303.46544646 -285.6875 287.75 C-285.68850708 286.79368683 -285.68951416 285.83737366 -285.69055176 284.8520813 C-285.6759821 264.37721705 -284.05542432 244.62824364 -279.02636719 224.72265625 C-278.38200033 222.15373764 -277.77376893 219.57735394 -277.1640625 217 C-268.33701652 180.55869884 -251.99312654 146.30541074 -229.4375 116.375 C-228.99937988 115.79266602 -228.56125977 115.21033203 -228.10986328 114.61035156 C-221.66855511 106.10698974 -214.85381221 98.05256406 -207.4375 90.375 C-206.70821289 89.61848145 -205.97892578 88.86196289 -205.22753906 88.08251953 C-195.70088169 78.25255048 -186.21398174 68.66427092 -175.12060547 60.60498047 C-173.35410161 59.31405409 -171.61597151 57.99038378 -169.87890625 56.66015625 C-142.22106343 35.65952189 -109.27105768 18.44305515 -75.53808594 9.90771484 C-73.27137313 9.33286973 -71.01562911 8.72207388 -68.7578125 8.11328125 C-45.94567783 2.13553067 -23.49832392 0.00499747 0 0 Z " fill="#091F5B" transform="translate(997.4375,274.625)"/>
<path d="M0 0 C1.06420166 0.1848999 1.06420166 0.1848999 2.14990234 0.37353516 C32.51599032 5.94823845 63.29311838 23.79126235 81.75 48.75 C94.56894696 68.37019755 100.42085307 89.20632518 95.96826172 112.58911133 C89.94218458 139.5933517 72.10470766 159.52640632 49.24853516 174.11816406 C28.57102788 187 28.57102788 187 20 187 C20.05534912 187.80066895 20.11069824 188.60133789 20.16772461 189.42626953 C21.71879707 212.27755355 22.53612538 235.10231891 23 258 C20.17883189 255.23730938 17.48682572 252.52218441 15.125 249.35546875 C14.62145996 248.68684814 14.11791992 248.01822754 13.59912109 247.3293457 C13.07141113 246.62253662 12.54370117 245.91572754 12 245.1875 C7.56005226 239.30848011 3.04269592 233.51248827 -1.625 227.8125 C-6.61024678 221.72208286 -11.51900647 215.57892848 -16.3671875 209.37890625 C-16.79499512 208.85482178 -17.22280273 208.3307373 -17.66357422 207.79077148 C-19 206 -19 206 -20.30908203 203.64868164 C-22.8390954 199.52005152 -24.65396662 197.38401597 -29.40673828 196.02807617 C-33.6361818 195.40192429 -37.85623648 195.32773204 -42.125 195.3125 C-42.88532532 195.29718231 -43.64565063 195.28186462 -44.42901611 195.26608276 C-57.77459775 195.04853184 -67.06607474 197.9726005 -78.60107422 204.73144531 C-85.51338231 208.38668171 -93.45506338 210.09484592 -101 212 C-101.67708008 212.17112305 -102.35416016 212.34224609 -103.05175781 212.51855469 C-115.27042148 215.52517664 -127.14331987 216.15406336 -139.6875 216.0625 C-140.87794922 216.05798828 -142.06839844 216.05347656 -143.29492188 216.04882812 C-146.19666936 216.03717452 -149.09830626 216.02081559 -152 216 C-152.42647827 216.898396 -152.42647827 216.898396 -152.86157227 217.81494141 C-154.50136799 220.96230828 -156.72589188 223.61805335 -158.9375 226.375 C-159.9349665 227.63145432 -160.9323603 228.88796636 -161.9296875 230.14453125 C-162.43983398 230.78471191 -162.94998047 231.42489258 -163.47558594 232.08447266 C-165.84978358 235.06780941 -168.20664326 238.06467335 -170.5625 241.0625 C-171.23502808 241.91618164 -171.23502808 241.91618164 -171.92114258 242.78710938 C-174.26265409 245.76468585 -176.5839023 248.75592897 -178.87890625 251.76953125 C-179.34031006 252.37466553 -179.80171387 252.9797998 -180.27709961 253.60327148 C-181.15968306 254.76337076 -182.03951459 255.92557005 -182.91625977 257.09008789 C-183.92114065 258.41123201 -184.95733436 259.70846767 -186 261 C-186.33 261 -186.66 261 -187 261 C-187.18381566 249.86511109 -186.60586761 238.80151108 -186 227.6875 C-185.90333289 225.86785514 -185.80697652 224.04819374 -185.7109375 222.22851562 C-185.47753493 217.81881188 -185.23994738 213.40935226 -185 209 C-185.5868306 208.88172852 -186.17366119 208.76345703 -186.77827454 208.64160156 C-191.21759673 207.70836581 -195.28816222 206.68037991 -199.41796875 204.75 C-200.82369141 204.09306152 -200.82369141 204.09306152 -202.2578125 203.42285156 C-227.88683601 190.97568915 -248.46082575 174.37762507 -259 147 C-261.47991102 139.5565766 -262.5529362 132.64839728 -262.5 124.8125 C-262.49427979 123.8136377 -262.48855957 122.81477539 -262.48266602 121.78564453 C-261.95713769 99.75592161 -250.27177924 81.56205367 -234.81640625 66.5078125 C-220.05016211 53.35950635 -202.7020241 45.00380881 -184 39 C-183.34435059 38.78859375 -182.68870117 38.5771875 -182.01318359 38.359375 C-174.4343286 36.02438559 -166.99405312 34.9347891 -159.1015625 34.33984375 C-158.39434555 34.28416229 -157.6871286 34.22848083 -156.95848083 34.17111206 C-153.37908727 33.89327858 -149.80386956 33.65369757 -146.21801758 33.47753906 C-137.47357506 32.93891884 -132.99326236 31.35825589 -127 25 C-124.57342992 23.17728273 -122.02451411 21.58447267 -119.4375 20 C-118.74769043 19.57557617 -118.05788086 19.15115234 -117.34716797 18.71386719 C-101.24329202 8.99202011 -83.46744776 2.53432777 -65 -1 C-64.03449219 -1.20496094 -63.06898438 -1.40992188 -62.07421875 -1.62109375 C-41.80517466 -5.28113284 -20.15216993 -3.60617778 0 0 Z " fill="#EBEEF3" transform="translate(1082,433)"/>
<path d="M0 0 C1.72440308 0.00164658 1.72440308 0.00164658 3.48364258 0.00332642 C23.14135556 0.05691794 41.93320472 1.54138166 61.1875 5.5 C62.69014404 5.79632324 62.69014404 5.79632324 64.22314453 6.09863281 C91.67477131 11.61851192 118.61078698 21.51742067 143.36669922 34.55126953 C145.11843987 35.46401613 146.88905759 36.34025172 148.66015625 37.21484375 C169.43042999 47.72648838 188.87120793 61.72166966 205.98046875 77.4765625 C207.90880517 79.24448863 209.87597978 80.93846046 211.875 82.625 C222.24465516 91.68791 231.71087736 101.65884578 240.1875 112.5 C241.11444648 113.62855902 242.0443134 114.75472351 242.9765625 115.87890625 C271.39991048 150.35481551 292.55731301 192.20144579 302.55224609 235.74365234 C303.19203713 238.51968648 303.86979256 241.28459841 304.55078125 244.05078125 C313.30869884 280.59463294 314.2525629 320.4173798 308.1875 357.5 C307.95474365 358.96735596 307.95474365 358.96735596 307.71728516 360.46435547 C299.03715096 414.27056956 276.10008562 464.01551281 242.1875 506.5 C241.74067871 507.06541504 241.29385742 507.63083008 240.83349609 508.21337891 C233.85640274 516.96444378 226.006411 524.88459011 218.125 532.8125 C217.61802582 533.32483185 217.11105164 533.8371637 216.5887146 534.36502075 C209.79664994 541.21144939 202.79318402 547.54704825 195.1875 553.5 C194.49873779 554.04277588 193.80997559 554.58555176 193.1003418 555.14477539 C178.3304184 566.65497154 162.68726034 576.66322119 146.1875 585.5 C145.58744141 585.82532715 144.98738281 586.1506543 144.36914062 586.48583984 C88.56175814 616.50436919 23.17512934 627.3065827 -39.4375 619.25 C-40.23281128 619.14785187 -41.02812256 619.04570374 -41.84753418 618.94046021 C-57.64624435 616.8578656 -73.15350538 613.62321603 -88.375 608.875 C-89.46216309 608.53726563 -90.54932617 608.19953125 -91.66943359 607.8515625 C-108.65522995 602.44821452 -125.26544543 595.83402884 -141.00927734 587.45458984 C-142.83633351 586.48738302 -144.67587902 585.54841107 -146.51953125 584.61328125 C-174.5462922 570.25112657 -198.94695043 550.47086868 -221.1875 528.375 C-221.69824066 527.86970764 -222.20898132 527.36441528 -222.73519897 526.84381104 C-229.56347163 520.06984997 -235.8585587 513.07149488 -241.8125 505.5 C-242.29879883 504.89333496 -242.78509766 504.28666992 -243.28613281 503.66162109 C-253.62004477 490.73813324 -262.61923687 476.8643592 -270.8125 462.5 C-271.20405273 461.81550781 -271.59560547 461.13101562 -271.99902344 460.42578125 C-289.90467624 428.74099997 -301.31376672 393.38243156 -306.8125 357.5 C-307.04623794 356.05718832 -307.28052587 354.61446551 -307.515625 353.171875 C-309.68013928 339.13345382 -310.05143485 325.11163165 -310.0625 310.9375 C-310.06350708 310.0380365 -310.06451416 309.138573 -310.06555176 308.21185303 C-310.04938967 286.75287355 -308.43336671 265.66552518 -303.35839844 244.75537109 C-302.79333455 242.42081825 -302.25927457 240.08041017 -301.7265625 237.73828125 C-291.46899131 193.64833469 -271.19640478 152.72515362 -242.8125 117.5 C-242.08933594 116.58476562 -241.36617187 115.66953125 -240.62109375 114.7265625 C-228.74808322 99.90122914 -215.43717609 85.43029994 -200.5078125 73.6484375 C-198.73847317 72.23809455 -197.00193245 70.78538749 -195.3046875 69.2890625 C-158.18326574 36.71312095 -109.27671427 15.57030341 -61.25 5.75 C-60.3432251 5.5634082 -59.4364502 5.37681641 -58.50219727 5.18457031 C-55.27974736 4.56268912 -52.05322836 4.0192921 -48.8125 3.5 C-48.02865936 3.37431641 -47.24481873 3.24863281 -46.43722534 3.11914062 C-30.92866979 0.69843418 -15.68336421 -0.0621205 0 0 Z M-179.8125 86.5 C-180.74707031 87.23089844 -181.68164062 87.96179688 -182.64453125 88.71484375 C-199.28654204 102.17240686 -215.33921636 118.09690069 -227.8125 135.5 C-228.70898285 136.68346365 -229.60885641 137.86436478 -230.51171875 139.04296875 C-252.22062364 167.5999291 -268.17285909 200.54181132 -277.20849609 235.22363281 C-277.75776561 237.2937173 -278.34557261 239.3460262 -278.95703125 241.3984375 C-281.74368935 251.02127934 -283.19511663 260.69170602 -284.43164062 270.61865234 C-284.70211297 272.66487964 -285.00645272 274.70675637 -285.33398438 276.74462891 C-286.89052233 286.88566754 -287.11975567 296.82563655 -287.07324219 307.06933594 C-287.06254153 309.86415427 -287.0731893 312.65832628 -287.0859375 315.453125 C-287.09555169 326.62031312 -286.43429663 337.45305927 -284.8125 348.5 C-284.54711426 350.33884766 -284.54711426 350.33884766 -284.27636719 352.21484375 C-281.93297971 367.71920201 -278.86564391 382.65638978 -273.8125 397.5 C-273.26018652 399.1783097 -272.70810767 400.85669662 -272.15625 402.53515625 C-263.36457383 428.84207133 -250.97910718 453.93999671 -234.8125 476.5 C-234.05404785 477.56154297 -234.05404785 477.56154297 -233.28027344 478.64453125 C-227.59942096 486.53640758 -221.69333732 494.02710686 -215.0390625 501.125 C-213.08827188 503.20584333 -211.22275591 505.32823002 -209.375 507.5 C-194.84044688 524.19416833 -177.25116399 538.35166569 -158.8125 550.5 C-158.2457959 550.87801758 -157.6790918 551.25603516 -157.09521484 551.64550781 C-128.88907523 570.35628033 -97.66573241 583.53884244 -64.8125 591.5 C-63.95817383 591.70705566 -63.10384766 591.91411133 -62.22363281 592.12744141 C11.79802204 609.52619473 90.24370263 593.80671708 154.53125 554.453125 C178.48917619 538.86759237 202.06334475 519.74412314 219.91796875 497.32421875 C221.42824347 495.44482353 222.9729172 493.59255104 224.55078125 491.76953125 C231.94632324 483.21806722 238.14296361 474.039034 244.1875 464.5 C244.8371875 463.4776123 244.8371875 463.4776123 245.5 462.43457031 C257.74900636 442.94142503 266.98095853 421.98793519 274.28271484 400.19433594 C275.05856165 397.88396214 275.86069405 395.58576697 276.67578125 393.2890625 C280.83713094 380.99826495 283.03538986 368.26994796 285.1875 355.5 C285.35556152 354.52562988 285.52362305 353.55125977 285.69677734 352.54736328 C297.60000598 281.18966623 278.37089721 203.89901954 236.56005859 145.21582031 C233.36432363 140.85791352 230.06129219 136.59224024 226.68554688 132.37255859 C225.36616386 130.72332982 224.06446856 129.05998388 222.765625 127.39453125 C209.38870565 110.84824375 193.48282715 94.89922351 176.1875 82.5 C175.03908439 81.62708479 173.89333355 80.75065488 172.75 79.87109375 C143.76322643 57.7635422 110.44897453 41.70869363 75.1875 32.5 C74.19580811 32.23413086 74.19580811 32.23413086 73.18408203 31.96289062 C48.54725121 25.37721908 24.07957722 23.06957665 -1.375 23.125 C-2.87012115 23.12631424 -2.87012115 23.12631424 -4.39544678 23.12765503 C-68.29387873 23.31175814 -130.19982081 46.2931959 -179.8125 86.5 Z " fill="#EAEDF3" transform="translate(998.8125,251.5)"/>
<path d="M0 0 C0.76007355 -0.00040283 1.52014709 -0.00080566 2.30325317 -0.0012207 C23.92876337 0.06433255 43.56745783 4.227632 63.1875 13.4375 C64.13786133 13.88246826 64.13786133 13.88246826 65.10742188 14.33642578 C82.41452858 22.63454841 97.87343893 35.53235431 107.1875 52.4375 C107.65800781 53.25863281 108.12851563 54.07976562 108.61328125 54.92578125 C116.13823186 68.84361025 117.18096259 84.09330354 113.15625 99.31640625 C110.05007562 109.3237987 105.78490269 117.28988793 99.1875 125.4375 C98.20330078 126.68660156 98.20330078 126.68660156 97.19921875 127.9609375 C83.23893996 144.62914231 58.87747368 158.53438045 37.1875 161.4375 C37.2596875 162.49066406 37.331875 163.54382813 37.40625 164.62890625 C38.03563736 174.25146487 38.31383389 183.79401306 38.1875 193.4375 C33.95330059 189.3853316 30.28817016 185.00697808 26.625 180.4375 C25.77905273 179.38949219 25.77905273 179.38949219 24.91601562 178.3203125 C20.26266985 172.55125224 20.26266985 172.55125224 18.40283203 169.73681641 C16.35504043 167.17661644 16.35504043 167.17661644 13.18920898 166.82568359 C11.45392944 166.83075928 11.45392944 166.83075928 9.68359375 166.8359375 C8.39493408 166.82280518 7.10627441 166.80967285 5.77856445 166.79614258 C5.1004068 166.79933502 4.42224915 166.80252747 3.72354126 166.80581665 C0.19225957 166.81706293 -3.33689171 166.7368525 -6.8671875 166.66015625 C-7.56206772 166.64633408 -8.25694794 166.6325119 -8.97288513 166.61827087 C-41.15051004 165.87300698 -73.72002313 152.80283964 -96.44433594 129.88330078 C-110.31236015 115.22833301 -116.60029952 97.68793282 -116.15234375 77.734375 C-115.14294355 59.28873822 -103.71003241 42.32901243 -90.40917969 30.26269531 C-75.86299127 17.62041168 -58.73426287 9.69713215 -40.25 4.6875 C-39.5192627 4.48858154 -38.78852539 4.28966309 -38.03564453 4.0847168 C-25.48109084 0.87657553 -12.8957732 -0.00706918 0 0 Z " fill="#091F5B" transform="translate(1047.8125,446.5625)"/>
<path d="M0 0 C5.57992658 4.62657229 9.17548257 9.76142178 12.45703125 16.18359375 C13.02550781 17.26253906 13.02550781 17.26253906 13.60546875 18.36328125 C18.68711554 28.79402993 19.92041363 39.89790397 19.890625 51.359375 C19.89586685 52.56820847 19.9011087 53.77704193 19.9065094 55.02250671 C19.91288677 57.5611393 19.91164879 60.09980161 19.90307617 62.63842773 C19.8945751 66.47629621 19.92337766 70.3126688 19.95507812 74.15039062 C20.01799459 95.77961471 17.8916548 116.54419685 2.12109375 132.9921875 C-12.01162097 144.61748509 -29.92139741 146.48508634 -47.54296875 145.18359375 C-59.69759952 143.04153898 -69.79756646 136.77233414 -77.54296875 127.18359375 C-80.42822893 122.38703177 -82.4667335 117.37418188 -84.54296875 112.18359375 C-84.87296875 139.24359375 -85.20296875 166.30359375 -85.54296875 194.18359375 C-93.46296875 194.18359375 -101.38296875 194.18359375 -109.54296875 194.18359375 C-109.54296875 127.85359375 -109.54296875 61.52359375 -109.54296875 -6.81640625 C-101.62296875 -6.81640625 -93.70296875 -6.81640625 -85.54296875 -6.81640625 C-85.21296875 2.42359375 -84.88296875 11.66359375 -84.54296875 21.18359375 C-82.56296875 17.22359375 -80.58296875 13.26359375 -78.54296875 9.18359375 C-71.70667511 -0.58600319 -62.14883197 -7.07750135 -50.54296875 -9.81640625 C-32.55665519 -12.90039047 -15.13381934 -10.80987096 0 0 Z " fill="#FCF6ED" transform="translate(1366.54296875,1053.81640625)"/>
<path d="M0 0 C10.96811874 9.0719355 17.58970423 22.5989827 19.03417969 36.71679688 C19.90195052 45.97462038 19.79518657 55.28297291 19.84228516 64.57348633 C19.85877542 66.94598243 19.88597248 69.31843029 19.92431641 71.69067383 C20.27702721 93.71669665 18.79700277 115.22167892 2.87109375 131.9609375 C-9.98973351 144.16710853 -26.00130404 145.66984723 -42.9375 145.4296875 C-48.20912778 145.25660203 -52.69648487 144.4246355 -57.5078125 142.21875 C-58.87292969 141.59806641 -58.87292969 141.59806641 -60.265625 140.96484375 C-72.51245952 134.84142649 -78.2800622 126.52290433 -83.5078125 114.21875 C-83.8378125 112.89875 -84.1678125 111.57875 -84.5078125 110.21875 C-84.8378125 137.93875 -85.1678125 165.65875 -85.5078125 194.21875 C-93.4278125 194.21875 -101.3478125 194.21875 -109.5078125 194.21875 C-109.5078125 127.88875 -109.5078125 61.55875 -109.5078125 -6.78125 C-101.5878125 -6.78125 -93.6678125 -6.78125 -85.5078125 -6.78125 C-85.1778125 3.11875 -84.8478125 13.01875 -84.5078125 23.21875 C-83.1878125 19.91875 -81.8678125 16.61875 -80.5078125 13.21875 C-74.44918426 1.71734309 -65.1664344 -4.385712 -53.3203125 -9.03125 C-35.07119607 -13.89768105 -15.42058362 -10.9529379 0 0 Z " fill="#FCF6ED" transform="translate(1530.5078125,1053.78125)"/>
<path d="M0 0 C11.00395258 7.9390933 16.37343598 20.57145297 18.90551376 33.58091354 C19.60095065 38.16592574 19.58968277 42.69576837 19.55517578 47.32470703 C19.55546783 48.36979935 19.55575989 49.41489166 19.55606079 50.49165344 C19.55467874 53.91118977 19.53917079 57.33050222 19.5234375 60.75 C19.51970337 63.13467286 19.51685829 65.51934727 19.51486206 67.90402222 C19.50725711 74.1543813 19.48763573 80.40464618 19.4654541 86.65496826 C19.44492787 93.04340338 19.43584589 99.43185385 19.42578125 105.8203125 C19.40438674 118.33598537 19.36923033 130.85156383 19.328125 143.3671875 C11.078125 143.3671875 2.828125 143.3671875 -5.671875 143.3671875 C-5.671875 132.8071875 -5.671875 122.2471875 -5.671875 111.3671875 C-6.991875 114.9971875 -8.311875 118.6271875 -9.671875 122.3671875 C-17.11632435 135.45753227 -27.09976394 140.72512053 -40.9375 145.4921875 C-45.49239767 146.55944386 -49.69969105 146.66898144 -54.359375 146.6171875 C-55.24351074 146.60969482 -56.12764648 146.60220215 -57.03857422 146.59448242 C-70.92082741 146.36713354 -82.47728769 144.0411277 -92.921875 134.3125 C-101.01980139 125.31078718 -103.19094365 114.22324219 -103.109375 102.4921875 C-103.12935547 101.48027344 -103.14933594 100.46835938 -103.16992188 99.42578125 C-103.16306657 88.71779273 -100.1037466 79.23316375 -92.671875 71.3671875 C-77.57980796 56.80404804 -53.59514363 55.13182238 -33.88696289 52.76123047 C-26.96749511 51.92874089 -20.10714837 50.99776388 -13.2512207 49.73876953 C-10.68595021 49.36921518 -8.25960521 49.30123204 -5.671875 49.3671875 C-5.98864256 38.37535309 -6.99127571 28.27435925 -14.76953125 19.90234375 C-26.62182826 10.3377591 -43.33539758 11.33733319 -57.671875 12.3671875 C-68.64799774 13.90243296 -78.71395094 17.88822547 -88.5703125 22.81640625 C-91.23676288 24.14963144 -93.88756792 25.30873369 -96.671875 26.3671875 C-97.151368 11.98239735 -97.151368 11.98239735 -94.671875 5.3671875 C-92.02257654 2.794766 -89.08069972 1.68970897 -85.671875 0.3671875 C-84.86621094 -0.04789063 -84.06054688 -0.46296875 -83.23046875 -0.890625 C-75.11595252 -5.02840885 -66.52236931 -6.78669712 -57.671875 -8.6328125 C-56.87249512 -8.81078369 -56.07311523 -8.98875488 -55.24951172 -9.17211914 C-36.8142151 -12.46700498 -15.98296307 -9.76736632 0 0 Z " fill="#FAF5EC" transform="translate(1199.671875,1052.6328125)"/>
<path d="M0 0 C11.44164035 9.50784198 16.607903 20.98125537 18.25 35.6875 C18.75709361 43.96571644 18.60084231 52.26949484 18.54296875 60.55859375 C18.5373624 62.93611888 18.53309722 65.31364751 18.53010559 67.69117737 C18.51873864 73.90041949 18.48934284 80.10944574 18.45599365 86.31860352 C18.42511569 92.6739612 18.41156262 99.0293543 18.39648438 105.38476562 C18.36446428 117.81911975 18.3117642 130.25325802 18.25 142.6875 C10.33 142.6875 2.41 142.6875 -5.75 142.6875 C-6.08 132.7875 -6.41 122.8875 -6.75 112.6875 C-8.07 115.9875 -9.39 119.2875 -10.75 122.6875 C-18.62352515 134.77244558 -28.63819485 141.79277156 -42.75 145 C-58.4645808 147.34579974 -75.42300011 147.19080875 -88.6875 137.4375 C-96.85947549 130.50370262 -101.89775988 123.20440021 -103.13012695 112.3347168 C-103.28487754 108.75595325 -103.29623912 105.20660511 -103.25 101.625 C-103.26546875 100.42294922 -103.2809375 99.22089844 -103.296875 97.98242188 C-103.24741247 86.64932021 -100.53062223 78.3194161 -92.61328125 70.078125 C-82.65868621 61.76678507 -70.27556918 58.08408905 -57.75 55.6875 C-56.45707031 55.43613281 -55.16414062 55.18476562 -53.83203125 54.92578125 C-43.71781526 53.07802672 -33.50574345 51.82277728 -23.3125 50.5 C-22.61430145 50.40928223 -21.91610291 50.31856445 -21.19674683 50.22509766 C-9.30084529 48.6875 -9.30084529 48.6875 -5.75 48.6875 C-6.66640848 37.66324279 -7.90933319 28.70562631 -15.0625 19.8125 C-24.06125565 12.69720483 -33.32708759 11.35412006 -44.5 11.4375 C-45.5209375 11.42976563 -46.541875 11.42203125 -47.59375 11.4140625 C-58.13104915 11.44080691 -67.54821877 13.24536551 -77.375 17 C-78.19605225 17.30687744 -79.01710449 17.61375488 -79.86303711 17.92993164 C-84.90217807 19.8550249 -89.66819003 21.97031107 -94.25390625 24.83984375 C-95.75 25.6875 -95.75 25.6875 -97.75 25.6875 C-98.44590775 7.86452917 -98.44590775 7.86452917 -94.29443359 2.97216797 C-89.94135004 -0.25061616 -84.88827387 -1.78561657 -79.75 -3.3125 C-78.59757813 -3.71984375 -77.44515625 -4.1271875 -76.2578125 -4.546875 C-73.11213886 -5.60825144 -69.96220557 -6.47716513 -66.75 -7.3125 C-65.30367187 -7.75916016 -65.30367187 -7.75916016 -63.828125 -8.21484375 C-44.40883957 -13.67337346 -16.63986522 -12.31460224 0 0 Z " fill="#FCF6ED" transform="translate(844.75,1053.3125)"/>
<path d="M0 0 C8.25 0 16.5 0 25 0 C25 28.38 25 56.76 25 86 C26.32 82.37 27.64 78.74 29 75 C35.43592084 63.17016455 44.8902922 56.57243443 57.1875 51.75 C72.3719629 47.70080989 89.48408773 48.89108071 103.30859375 56.37109375 C113.87803694 62.76798462 119.78033055 72.1457625 123 84 C124.64672735 91.44976039 125.28349561 98.5458726 125.22705078 106.1628418 C125.22734283 107.21783371 125.22763489 108.27282562 125.22793579 109.35978699 C125.22655546 112.80635136 125.21105584 116.25269269 125.1953125 119.69921875 C125.19157776 122.10488263 125.18873296 124.51054804 125.18673706 126.91621399 C125.17913696 133.2175219 125.15951984 139.51873616 125.1373291 145.82000732 C125.11679231 152.26215346 125.10771865 158.70431487 125.09765625 165.14648438 C125.07627031 177.76437047 125.04111796 190.38216276 125 203 C116.75 203 108.5 203 100 203 C99.98541748 199.94266602 99.97083496 196.88533203 99.95581055 193.73535156 C99.90533299 183.60118384 99.83871488 173.46716764 99.76428509 163.33314896 C99.71967646 157.19265318 99.68039943 151.05222231 99.65356445 144.91162109 C99.62743662 138.97870287 99.58696738 133.04603566 99.53681374 127.11327362 C99.52020899 124.85686124 99.50865512 122.6004055 99.50238609 120.34394073 C99.78235548 97.4913256 99.78235548 97.4913256 89 78 C80.64343733 70.91425101 68.36205098 71.2426731 58.00927734 71.8046875 C48.23499533 72.75479997 40.33155647 78.21802285 33.8125 85.25 C27.76718854 92.90204347 25.25123252 99.98169225 25.34057617 109.68212891 C25.32485062 111.20587631 25.32485062 111.20587631 25.30880737 112.76040649 C25.28024908 116.08277659 25.28632655 119.40409261 25.29296875 122.7265625 C25.27984214 125.04398899 25.26453497 127.36140406 25.24714661 129.67880249 C25.20739704 135.75162833 25.19711256 141.82415416 25.19311523 147.89709473 C25.18376495 154.10466555 25.14633946 160.3120615 25.11132812 166.51953125 C25.04685412 178.67972072 25.01612778 190.8396502 25 203 C16.75 203 8.5 203 0 203 C0 136.01 0 69.02 0 0 Z " fill="#FBF5EC" transform="translate(587,993)"/>
<path d="M0 0 C1.33611328 -0.02416992 1.33611328 -0.02416992 2.69921875 -0.04882812 C12.87719877 -0.05621418 22.00353198 2.51761347 29.75 9.3125 C37.91896292 18.64585852 40.3716192 29.64788869 40.28125 41.7421875 C40.28699036 43.47047287 40.28699036 43.47047287 40.29284668 45.2336731 C40.29555216 47.65562826 40.28828741 50.07761333 40.27148438 52.49951172 C40.25009657 56.17092281 40.27131465 59.84036839 40.296875 63.51171875 C40.33275138 93.11477033 40.33275138 93.11477033 29.75 104.3125 C29.24855469 104.86550781 28.74710938 105.41851563 28.23046875 105.98828125 C19.8189034 114.23611784 8.66488894 114.94098459 -2.52099609 114.85327148 C-13.72535167 114.4590927 -23.35616506 110.42517393 -31.25 102.3125 C-41.14852905 88.71000524 -40.5757304 75.11445354 -40.70996094 58.92993164 C-40.73651946 56.48897631 -40.77739025 54.04813215 -40.83300781 51.60766602 C-41.19985369 35.28854932 -41.0836994 24.08666689 -29.9375 11.375 C-21.00659697 3.28891212 -11.87049577 -0.04221371 0 0 Z " fill="#091F5B" transform="translate(1485.25,1063.6875)"/>
<path d="M0 0 C0.9075 -0.00773437 1.815 -0.01546875 2.75 -0.0234375 C13.04696835 0.00623676 21.08802315 2.13738998 28.765625 9.2265625 C35.6802619 16.47412636 39.72607689 25.1580022 39.77026367 35.24291992 C39.77664352 36.23462692 39.78302338 37.22633392 39.78959656 38.24809265 C39.79070938 39.31477676 39.7918222 40.38146088 39.79296875 41.48046875 C39.79796135 43.13795891 39.79796135 43.13795891 39.80305481 44.82893372 C39.80811719 47.16825952 39.81046335 49.50759255 39.81030273 51.84692383 C39.81248105 55.40653584 39.83062178 58.96583377 39.84960938 62.52539062 C39.85254515 64.80208228 39.85452871 67.0787754 39.85546875 69.35546875 C39.86265427 70.41203171 39.86983978 71.46859467 39.87724304 72.55717468 C39.84091866 84.45189409 37.38275967 95.23807486 29.65234375 104.65234375 C20.43154954 113.6388528 9.70981251 114.87840985 -2.64428711 114.79345703 C-10.02607832 114.53687248 -15.99372719 113.1093938 -22.375 109.25 C-23.50615234 108.58097656 -23.50615234 108.58097656 -24.66015625 107.8984375 C-33.45146137 102.01565762 -38.2518888 92.4224951 -40.375 82.25 C-40.48422569 80.50141429 -40.54338978 78.74938133 -40.56787109 76.99755859 C-40.58393402 75.94901703 -40.59999695 74.90047546 -40.61654663 73.82015991 C-40.66126416 69.02220473 -40.70207467 64.22438475 -40.72509766 59.42626953 C-40.74162946 56.90273804 -40.76888229 54.37925283 -40.80712891 51.85595703 C-40.86216185 48.20320525 -40.88381491 44.5515492 -40.8984375 40.8984375 C-40.92110687 39.78141449 -40.94377625 38.66439148 -40.96713257 37.51351929 C-40.93691159 26.19453573 -36.49762837 18.62873607 -28.84375 10.515625 C-20.20919312 2.59150634 -11.48305379 -0.09703989 0 0 Z " fill="#091F5B" transform="translate(1321.375,1063.75)"/>
<path d="M0 0 C0.02994619 3.79164893 0.04710433 7.5832663 0.0625 11.375 C0.07087891 12.4165625 0.07925781 13.458125 0.08789062 14.53125 C0.1166916 24.09317211 -0.46645743 33.39623373 -1 43 C19.13 43 39.26 43 60 43 C60 53.21538462 60 53.21538462 59.5625 56.9375 C59.44068359 58.03384766 59.44068359 58.03384766 59.31640625 59.15234375 C59 61 59 61 58 63 C38.86 63 19.72 63 0 63 C0.06180868 78.57439683 0.06180868 78.57439683 0.16015625 94.1484375 C0.20840067 100.50586168 0.25247944 106.86311379 0.27099609 113.22070312 C0.28620439 118.34969631 0.320724 123.47823759 0.36830902 128.60702896 C0.38307984 130.55806665 0.39103853 132.50916888 0.39188385 134.4602623 C-0.0838161 150.23234116 -0.0838161 150.23234116 6.72027588 163.912323 C12.86567024 169.80871453 19.52857927 170.33862579 27.6875 170.25 C28.57945068 170.24323242 29.47140137 170.23646484 30.39038086 170.22949219 C40.25052871 170.07499228 48.59642566 168.4169001 57.78515625 164.8046875 C60 164 60 164 62 164 C61.34 170.93 60.68 177.86 60 185 C41.01035091 192.80685574 18.79154675 197.26334995 -1.18359375 189.8125 C-9.44180685 186.01846452 -16.28719276 181.08705957 -20.3125 172.75 C-20.89276912 171.17309213 -21.45300979 169.58875813 -22 168 C-22.26754593 167.2302887 -22.53509186 166.46057739 -22.81074524 165.6675415 C-25.85131773 155.40836561 -25.3778077 145.07511418 -25.29296875 134.484375 C-25.28736364 132.41644602 -25.28309787 130.34851302 -25.28010559 128.28057861 C-25.26872887 122.8751905 -25.23932443 117.47004967 -25.20599365 112.0647583 C-25.17513704 106.53409163 -25.16156713 101.00338445 -25.14648438 95.47265625 C-25.11444699 84.64831216 -25.06173868 73.82421547 -25 63 C-32.92 63 -40.84 63 -49 63 C-49 56.4 -49 49.8 -49 43 C-41.08 43 -33.16 43 -25 43 C-25 29.8 -25 16.6 -25 3 C-21.6175 2.505 -18.235 2.01 -14.75 1.5 C-13.16010254 1.26506836 -13.16010254 1.26506836 -11.53808594 1.02539062 C-10.69536133 0.90357422 -9.85263672 0.78175781 -8.984375 0.65625 C-8.12553711 0.53056641 -7.26669922 0.40488281 -6.38183594 0.27539062 C-4 0 -4 0 0 0 Z " fill="#FAF5EC" transform="translate(931,1006)"/>
<path d="M0 0 C0.65838867 0.22510254 1.31677734 0.45020508 1.99511719 0.68212891 C6.28414103 2.19227233 9.7421504 3.800611 13 7 C14.77442166 12.07137548 15.0282931 16.61299414 15 22 C15.00386719 23.3096875 15.00773438 24.619375 15.01171875 25.96875 C15.00785156 26.9690625 15.00398437 27.969375 15 29 C14.1028125 28.46890625 13.205625 27.9378125 12.28125 27.390625 C-4.02042773 18.02987871 -21.74966453 13.97035746 -40.5 17.6953125 C-50.32229586 20.94212697 -57.18951155 26.89290318 -62 36 C-65.99912406 44.96928144 -67.13828503 53.59507602 -67.23828125 63.3125 C-67.246353 64.0844873 -67.25442474 64.85647461 -67.26274109 65.65185547 C-67.276484 67.27878645 -67.28724928 68.90574508 -67.29516602 70.53271484 C-67.306622 72.16333742 -67.32697133 73.79392441 -67.35668945 75.42431641 C-67.62377449 90.13935905 -66.81693112 106.11865831 -57 118 C-48.87638284 126.34972181 -39.40943231 129.09926498 -28.01635742 129.47070312 C-13.23847744 129.620441 -1.7567399 126.32310335 11.234375 119.390625 C14 118 14 118 16 118 C15.8859425 120.91747073 15.75919732 123.83344495 15.625 126.75 C15.5940625 127.575 15.563125 128.4 15.53125 129.25 C15.49257813 130.04921875 15.45390625 130.8484375 15.4140625 131.671875 C15.36693115 132.77160645 15.36693115 132.77160645 15.31884766 133.89355469 C14.95514918 136.29630389 14.26739772 137.9317042 13 140 C5.16908979 145.25564444 -3.95273288 147.72652437 -13 150 C-13.61327148 150.1757959 -14.22654297 150.3515918 -14.85839844 150.53271484 C-30.86710797 154.02572328 -51.2628768 151.51956456 -65.62890625 143.59765625 C-80.39753712 133.64647004 -87.24891807 120.1096738 -91.37365723 103.2359314 C-92.36068573 98.13655662 -92.39048355 93.16711839 -92.328125 87.98828125 C-92.32531525 86.34777046 -92.32531525 86.34777046 -92.32244873 84.67411804 C-92.31577925 82.38256743 -92.30196821 80.0910272 -92.28125 77.79956055 C-92.2499859 74.31092613 -92.240257 70.82274538 -92.234375 67.33398438 C-92.22520669 65.09374454 -92.21483147 62.85350926 -92.203125 60.61328125 C-92.19887512 59.58181473 -92.19462524 58.55034821 -92.19024658 57.48762512 C-92.015919 39.67578687 -87.80271487 23.39834623 -75.2578125 10.06640625 C-55.28523321 -8.2129959 -24.25660461 -9.15979535 0 0 Z " fill="#FCF6ED" transform="translate(541,1048)"/>
<path d="M0 0 C0.15062046 3.90995254 0.25825104 7.8187368 0.32958984 11.73095703 C0.37387882 13.7001496 0.45019904 15.66853949 0.52734375 17.63671875 C0.70704375 29.43701875 -2.90217632 38.60398807 -11.0078125 47.25 C-23.19798408 57.95822916 -37.07344967 58.89990912 -52.58837891 58.22216797 C-59.37475826 57.59698016 -63.94975114 54.40319028 -68.5 49.5625 C-74.27234051 42.59877526 -73.7150536 33.53480639 -73 25 C-71.56134881 19.0723929 -68.14055054 15.81247864 -63.29296875 12.32421875 C-58.11096683 9.33154643 -53.06207365 7.60196885 -47.19921875 6.48046875 C-46.24181038 6.2972834 -46.24181038 6.2972834 -45.26506042 6.11039734 C-37.92166579 4.74080319 -30.53146337 3.67106098 -23.13452148 2.63745117 C-20.77572688 2.30735385 -18.41812449 1.96952901 -16.06054688 1.63085938 C-14.54693835 1.41621946 -13.03326869 1.20201011 -11.51953125 0.98828125 C-10.82164993 0.88832352 -10.12376862 0.78836578 -9.40473938 0.68537903 C-6.21586686 0.24314569 -3.2305013 0 0 0 Z " fill="#0B215C" transform="translate(839,1120)"/>
<path d="M0 0 C0.15051702 4.0523812 0.25820666 8.1036384 0.32958984 12.15820312 C0.35940316 13.53153891 0.40007124 14.90469053 0.45263672 16.27734375 C0.90455022 28.39925893 -1.53656065 37.19561465 -9.625 46.375 C-19.10835931 55.11206808 -30.85998119 58.35719623 -43.4375 58.3125 C-44.79198242 58.33666992 -44.79198242 58.33666992 -46.17382812 58.36132812 C-55.01747022 58.36773192 -61.5964562 56.25462417 -68 50 C-71.85699854 44.54700207 -72.20156773 39.74401836 -72.25 33.1875 C-72.270625 32.50107422 -72.29125 31.81464844 -72.3125 31.10742188 C-72.35723013 25.19745281 -71.07617543 20.79320508 -67.484375 15.9609375 C-56.55167976 5.96392339 -40.56526409 4.87858081 -26.5 3.25 C-24.79669928 3.04179715 -23.0935723 2.83216787 -21.390625 2.62109375 C-18.27636684 2.23627159 -15.1612957 1.86042389 -12.04492188 1.49316406 C-9.36865686 1.17475829 -6.70049336 0.82296682 -4.03320312 0.43652344 C-1 0 -1 0 0 0 Z " fill="#0A205B" transform="translate(1194,1120)"/>
</svg>
